<svg width="25" height="57" viewBox="0 0 25 57" fill="none" xmlns="http://www.w3.org/2000/svg">
<path d="M1.81092 1.36963C1.22056 2.16423 0.888916 3.24178 0.888916 4.36534C0.888916 5.4889 1.22056 6.56646 1.81092 7.36105L17.3988 28.3353L1.81092 49.3095C1.23729 50.1086 0.919883 51.1789 0.927058 52.2899C0.934233 53.4009 1.26542 54.4637 1.84928 55.2493C2.43315 56.0349 3.22297 56.4805 4.04865 56.4902C4.87433 56.4998 5.66979 56.0727 6.26371 55.3009L24.078 31.331C24.6684 30.5364 25 29.4588 25 28.3353C25 27.2117 24.6684 26.1341 24.078 25.3396L6.26371 1.36963C5.67317 0.575276 4.87234 0.129032 4.03732 0.129032C3.2023 0.129032 2.40146 0.575276 1.81092 1.36963Z" fill="#85B6FF"/>
</svg>
